<svg width="470" height="526" viewBox="0 0 470 526" fill="none" xmlns="http://www.w3.org/2000/svg">
<rect width="470" height="526" />
<g id="Group 1">
<g id="Casa 1">
<g id="Casa">
<g id="arbolSombraGrande" opacity="0.2">
<path id="Vector" opacity="0.2" d="M338.86 350.83C338.86 332.55 333.23 315.94 324.04 303.58C327.292 296.822 328.777 289.35 328.355 281.862C327.933 274.374 325.618 267.116 321.627 260.767C317.636 254.417 312.1 249.184 305.536 245.556C298.972 241.929 291.595 240.026 284.095 240.026C276.595 240.026 269.218 241.929 262.654 245.556C256.09 249.184 250.554 254.417 246.563 260.767C242.572 267.116 240.257 274.374 239.835 281.862C239.413 289.35 240.898 296.822 244.15 303.58C234.96 315.94 229.33 332.58 229.33 350.83C229.33 369.08 234.96 385.72 244.15 398.08C240.898 404.838 239.413 412.31 239.835 419.798C240.257 427.286 242.572 434.544 246.563 440.893C250.554 447.243 256.09 452.476 262.654 456.104C269.218 459.731 276.595 461.634 284.095 461.634C291.595 461.634 298.972 459.731 305.536 456.104C312.1 452.476 317.636 447.243 321.627 440.893C325.618 434.544 327.933 427.286 328.355 419.798C328.777 412.31 327.292 404.838 324.04 398.08C333.23 385.72 338.86 369.11 338.86 350.83Z" fill="#28527A"/>
<path id="Vector 2" opacity="0.1" d="M338.86 350.83C338.86 332.55 333.23 315.94 324.04 303.58C327.292 296.822 328.777 289.35 328.355 281.862C327.933 274.374 325.618 267.116 321.627 260.767C317.636 254.417 312.1 249.184 305.536 245.556C298.972 241.929 291.595 240.026 284.095 240.026C276.595 240.026 269.218 241.929 262.654 245.556C256.09 249.184 250.554 254.417 246.563 260.767C242.572 267.116 240.257 274.374 239.835 281.862C239.413 289.35 240.898 296.822 244.15 303.58C234.96 315.94 229.33 332.58 229.33 350.83C229.33 369.08 234.96 385.72 244.15 398.08C240.898 404.838 239.413 412.31 239.835 419.798C240.257 427.286 242.572 434.544 246.563 440.893C250.554 447.243 256.09 452.476 262.654 456.104C269.218 459.731 276.595 461.634 284.095 461.634C291.595 461.634 298.972 459.731 305.536 456.104C312.1 452.476 317.636 447.243 321.627 440.893C325.618 434.544 327.933 427.286 328.355 419.798C328.777 412.31 327.292 404.838 324.04 398.08C333.23 385.72 338.86 369.11 338.86 350.83Z" fill="#28527A"/>
<path id="Vector 3" opacity="0.2" d="M341.47 350.83C341.47 332.55 335.84 315.94 326.65 303.58C329.905 296.821 331.391 289.346 330.97 281.856C330.549 274.366 328.235 267.104 324.243 260.752C320.252 254.4 314.714 249.165 308.148 245.536C301.582 241.907 294.202 240.004 286.7 240.004C279.198 240.004 271.818 241.907 265.252 245.536C258.686 249.165 253.148 254.4 249.157 260.752C245.165 267.104 242.851 274.366 242.43 281.856C242.009 289.346 243.495 296.821 246.75 303.58C237.57 315.94 231.94 332.58 231.94 350.83C231.94 369.08 237.57 385.72 246.75 398.08C243.495 404.839 242.009 412.314 242.43 419.804C242.851 427.294 245.165 434.555 249.157 440.908C253.148 447.26 258.686 452.495 265.252 456.124C271.818 459.753 279.198 461.656 286.7 461.656C294.202 461.656 301.582 459.753 308.148 456.124C314.714 452.495 320.252 447.26 324.243 440.908C328.235 434.555 330.549 427.294 330.97 419.804C331.391 412.314 329.905 404.839 326.65 398.08C335.84 385.72 341.47 369.11 341.47 350.83Z" fill="#28527A"/>
<path id="Vector 4" opacity="0.2" d="M291.92 519.05H281.49L286.7 346.92L291.92 519.05Z" fill="#28527A"/>
<path id="Vector 5" opacity="0.2" d="M288.01 389.94L321.91 375.6L288.01 393.86V389.94Z" fill="#28527A"/>
<path id="Vector 6" opacity="0.2" d="M284.93 405.6L274.97 393.86L284.73 412.12L284.93 405.6Z" fill="#28527A"/>
</g>
<g id="arbolSombrapequeno" opacity="0.2">
<path id="Vector 7" opacity="0.2" d="M418.41 409.9C418.41 398.09 414.77 387.35 408.83 379.36C410.935 374.991 411.896 370.159 411.625 365.317C411.354 360.475 409.858 355.781 407.278 351.675C404.698 347.568 401.119 344.184 396.874 341.838C392.63 339.492 387.86 338.261 383.01 338.261C378.16 338.261 373.39 339.492 369.146 341.838C364.901 344.184 361.322 347.568 358.742 351.675C356.162 355.781 354.666 360.475 354.395 365.317C354.124 370.159 355.085 374.991 357.19 379.36C350.953 388.323 347.61 398.981 347.61 409.9C347.61 420.819 350.953 431.477 357.19 440.44C355.085 444.809 354.124 449.641 354.395 454.483C354.666 459.325 356.162 464.019 358.742 468.125C361.322 472.232 364.901 475.616 369.146 477.962C373.39 480.308 378.16 481.539 383.01 481.539C387.86 481.539 392.63 480.308 396.874 477.962C401.119 475.616 404.698 472.232 407.278 468.125C409.858 464.019 411.354 459.325 411.625 454.483C411.896 449.641 410.935 444.809 408.83 440.44C414.77 432.45 418.41 421.72 418.41 409.9Z" fill="#28527A"/>
<path id="Vector 8" opacity="0.1" d="M418.41 409.9C418.41 398.09 414.77 387.35 408.83 379.36C410.935 374.991 411.896 370.159 411.625 365.317C411.354 360.475 409.858 355.781 407.278 351.675C404.698 347.568 401.119 344.184 396.874 341.838C392.63 339.492 387.86 338.261 383.01 338.261C378.16 338.261 373.39 339.492 369.146 341.838C364.901 344.184 361.322 347.568 358.742 351.675C356.162 355.781 354.666 360.475 354.395 365.317C354.124 370.159 355.085 374.991 357.19 379.36C350.953 388.323 347.61 398.981 347.61 409.9C347.61 420.819 350.953 431.477 357.19 440.44C355.085 444.809 354.124 449.641 354.395 454.483C354.666 459.325 356.162 464.019 358.742 468.125C361.322 472.232 364.901 475.616 369.146 477.962C373.39 480.308 378.16 481.539 383.01 481.539C387.86 481.539 392.63 480.308 396.874 477.962C401.119 475.616 404.698 472.232 407.278 468.125C409.858 464.019 411.354 459.325 411.625 454.483C411.896 449.641 410.935 444.809 408.83 440.44C414.77 432.45 418.41 421.72 418.41 409.9Z" fill="#28527A"/>
<path id="Vector 9" opacity="0.2" d="M420.1 409.9C420.239 398.96 416.883 388.261 410.52 379.36C412.625 374.991 413.586 370.159 413.315 365.317C413.044 360.475 411.548 355.781 408.968 351.675C406.388 347.568 402.809 344.184 398.564 341.838C394.32 339.492 389.55 338.261 384.7 338.261C379.85 338.261 375.08 339.492 370.836 341.838C366.591 344.184 363.012 347.568 360.432 351.675C357.852 355.781 356.356 360.475 356.085 365.317C355.814 370.159 356.775 374.991 358.88 379.36C352.94 387.36 349.3 398.09 349.3 409.9C349.3 421.71 352.94 432.45 358.88 440.44C356.775 444.809 355.814 449.641 356.085 454.483C356.356 459.325 357.852 464.019 360.432 468.125C363.012 472.232 366.591 475.616 370.836 477.962C375.08 480.308 379.85 481.539 384.7 481.539C389.55 481.539 394.32 480.308 398.564 477.962C402.809 475.616 406.388 472.232 408.968 468.125C411.548 464.019 413.044 459.325 413.315 454.483C413.586 449.641 412.625 444.809 410.52 440.44C416.884 431.54 420.241 420.84 420.1 409.9Z" fill="#28527A"/>
<path id="Vector 10" opacity="0.2" d="M388.07 518.62H381.33L384.7 407.37L388.07 518.62Z" fill="#28527A"/>
<path id="Vector 11" opacity="0.2" d="M385.54 435.18L407.45 425.91L385.54 437.71V435.18Z" fill="#28527A"/>
<path id="Vector 12" opacity="0.2" d="M383.55 445.3L377.11 437.71L383.42 449.51L383.55 445.3Z" fill="#28527A"/>
</g>
<g id="banco">
<path id="Vector 13" d="M311.37 476.76H310.16V494.88H311.37V476.76Z" fill="#535461"/>
<path id="Vector 14" d="M311.98 497.3H308.96V518.44H311.98V497.3Z" fill="#535461"/>
<path id="Vector 15" d="M376 497.3H372.98V518.44H376V497.3Z" fill="#535461"/>
<path id="Vector 16" opacity="0.1" d="M311.98 497.3H308.96V518.44H311.98V497.3Z" fill="black"/>
<path id="Vector 17" opacity="0.1" d="M376 497.3H372.98V518.44H376V497.3Z" fill="black"/>
<path id="Vector 18" d="M375.4 476.76H374.19V494.88H375.4V476.76Z" fill="#535461"/>
<path id="Vector 19" opacity="0.1" d="M311.37 476.76H310.16V494.88H311.37V476.76Z" fill="black"/>
<path id="Vector 20" opacity="0.1" d="M375.4 476.76H374.19V494.88H375.4V476.76Z" fill="black"/>
<path id="Vector 21" d="M380.84 475.56H304.73V479.18H380.84V475.56Z" fill="#535461"/>
<path id="Vector 22" d="M380.84 481.6H304.73V485.22H380.84V481.6Z" fill="#535461"/>
<path id="Vector 23" d="M380.84 487.64H304.73V491.26H380.84V487.64Z" fill="#535461"/>
<path id="Vector 24" d="M380.84 494.28H304.73V500.92H380.84V494.28Z" fill="#535461"/>
</g>
<g id="chimenea">
<path id="Vector 25" d="M239.19 257.81H212.01V310.36H239.19V257.81Z" fill="#E0E0E0"/>
<path id="Vector 26" opacity="0.1" d="M239.19 258.41H212.01V261.43H239.19V258.41Z" fill="black"/>
<path id="Vector 27" d="M243.42 254.79H207.18V260.83H243.42V254.79Z" fill="#E0E0E0"/>
<path id="Vector 28" opacity="0.1" d="M236.47 254.79H229.83V310.36H236.47V254.79Z" fill="black"/>
<path id="Vector 29" opacity="0.1" d="M226.81 255.09H225V310.66H226.81V255.09Z" fill="black"/>
</g>
<g id="frenteCasa">
<path id="Vector 30" d="M267.28 338.44V517.84H23.25V338.44L43.79 325.82L63.12 313.93L145.57 263.24L267.28 338.44Z" fill="#EEEEEE"/>
<path id="Vector 31" opacity="0.1" d="M236.47 517.84V329.16L232.85 331.39V517.84H236.47Z" fill="black"/>
<path id="Vector 32" opacity="0.1" d="M267.27 380.73H23.25V385.56H267.27V380.73Z" fill="black"/>
<path id="Vector 33" d="M267.27 380.12H23.25V384.95H267.27V380.12Z" fill="#ECE7E7"/>
<path id="Vector 34" opacity="0.1" d="M261.24 331.2V517.84H241.91V325.82L261.24 331.2Z" fill="black"/>
<path id="Vector 35" opacity="0.1" d="M57.68 313.93V517.84H38.35V325.82L57.68 313.93Z" fill="black"/>
<path id="Vector 36" opacity="0.1" d="M32.92 517.84V329.16L29.3 331.39V517.84H32.92Z" fill="black"/>
</g>
<g id="techo">
<path id="Vector 37" opacity="0.1" d="M145.57 243.31L0 349.01L9.66 364.72L145.57 272.3L281.47 364.72L291.14 349.01L145.57 243.31Z" fill="black"/>
<path id="Vector 38" d="M145.57 242.1L0 347.81L9.66 363.51L145.57 271.1L281.47 363.51L291.14 347.81L145.57 242.1Z" fill="#28527A"/>
</g>
<g id="ventanaIzq">
<path id="Vector 39" opacity="0.7" d="M94.23 413.64H43.49V464.38H94.23V413.64Z" fill="#8AC4D0"/>
<path id="Vector 40" opacity="0.1" d="M95.74 462.87H41.38V468.91H95.74V462.87Z" fill="black"/>
<path id="Vector 41" d="M95.74 461.66H41.38V467.7H95.74V461.66Z" fill="#535461"/>
<path id="Vector 42" opacity="0.15" d="M64.7 413.95L43.79 442.8V428.1L55.55 413.95H64.7Z" fill="white"/>
<path id="Vector 43" opacity="0.15" d="M82.67 413.95L43.79 454.79V447.59L72.8 413.95H82.67Z" fill="white"/>
<path id="Vector 44" d="M43.49 439.01H94.23" stroke="#535461" stroke-width="2" stroke-miterlimit="10"/>
<path id="Vector 45" d="M43.79 413.95H94.53" stroke="#535461" stroke-width="2" stroke-miterlimit="10"/>
<path id="Vector 46" d="M93.93 413.95V464.68" stroke="#535461" stroke-width="2" stroke-miterlimit="10"/>
<path id="Vector 47" d="M43.79 413.34V464.08" stroke="#535461" stroke-width="2" stroke-miterlimit="10"/>
</g>
<g id="ventanaDer">
<path id="Vector 48" opacity="0.7" d="M247.05 413.64H196.31V464.38H247.05V413.64Z" fill="#8AC4D0"/>
<path id="Vector 49" opacity="0.1" d="M249.16 462.87H194.8V468.91H249.16V462.87Z" fill="black"/>
<path id="Vector 50" d="M249.16 461.66H194.8V467.7H249.16V461.66Z" fill="#535461"/>
<path id="Vector 51" opacity="0.15" d="M225.83 413.95L246.74 442.8V428.1L234.99 413.95H225.83Z" fill="white"/>
<path id="Vector 52" opacity="0.15" d="M207.87 413.95L246.74 454.79V447.59L217.73 413.95H207.87Z" fill="white"/>
<path id="Vector 53" d="M247.04 439.01H196.31" stroke="#535461" stroke-width="2" stroke-miterlimit="10"/>
<path id="Vector 54" d="M246.74 413.95H196" stroke="#535461" stroke-width="2" stroke-miterlimit="10"/>
<path id="Vector 55" d="M196.61 413.95V464.68" stroke="#535461" stroke-width="2" stroke-miterlimit="10"/>
<path id="Vector 56" d="M246.74 413.34V464.08" stroke="#535461" stroke-width="2" stroke-miterlimit="10"/>
</g>
<g id="ventanaSup">
<path id="Vector 57" opacity="0.7" d="M170.34 310.36H119.6V361.1H170.34V310.36Z" fill="#8AC4D0"/>
<path id="Vector 58" opacity="0.1" d="M172.45 359.58H118.09V365.62H172.45V359.58Z" fill="black"/>
<path id="Vector 59" d="M172.45 358.38H118.09V364.42H172.45V358.38Z" fill="#535461"/>
<path id="Vector 60" opacity="0.15" d="M149.12 310.66L170.03 339.51V324.81L158.28 310.66H149.12Z" fill="white"/>
<path id="Vector 61" opacity="0.15" d="M131.16 310.66L170.03 351.5V344.3L141.02 310.66H131.16Z" fill="white"/>
<path id="Vector 62" d="M170.33 335.73H119.6" stroke="#535461" stroke-width="2" stroke-miterlimit="10"/>
<path id="Vector 63" d="M170.03 310.66H119.29" stroke="#535461" stroke-width="2" stroke-miterlimit="10"/>
<path id="Vector 64" d="M144.96 310.36V361.09" stroke="#535461" stroke-width="2" stroke-miterlimit="10"/>
<path id="Vector 65" d="M119.9 310.66V361.4" stroke="#535461" stroke-width="2" stroke-miterlimit="10"/>
<path id="Vector 66" d="M170.03 310.05V360.79" stroke="#535461" stroke-width="2" stroke-miterlimit="10"/>
</g>
<g id="arbolMid">
<path id="Vector 67" d="M286 439.92C286.113 432.068 283.709 424.387 279.14 418C280.65 414.869 281.341 411.405 281.148 407.934C280.955 404.463 279.884 401.098 278.035 398.154C276.187 395.209 273.621 392.782 270.579 391.1C267.536 389.418 264.117 388.536 260.64 388.536C257.164 388.536 253.744 389.418 250.701 391.1C247.659 392.782 245.093 395.209 243.245 398.154C241.396 401.098 240.325 404.463 240.132 407.934C239.939 411.405 240.63 414.869 242.14 418C237.672 424.425 235.277 432.064 235.277 439.89C235.277 447.716 237.672 455.355 242.14 461.78C240.63 464.911 239.939 468.375 240.132 471.846C240.325 475.317 241.396 478.682 243.245 481.626C245.093 484.571 247.659 486.998 250.701 488.68C253.744 490.362 257.164 491.244 260.64 491.244C264.117 491.244 267.536 490.362 270.579 488.68C273.621 486.998 276.187 484.571 278.035 481.626C279.884 478.682 280.955 475.317 281.148 471.846C281.341 468.375 280.65 464.911 279.14 461.78C283.696 455.41 286.1 447.751 286 439.92Z" fill="#4DB6AC"/>
<path id="Vector 68" opacity="0.1" d="M286 439.92C286.113 432.068 283.709 424.387 279.14 418C280.65 414.869 281.341 411.405 281.148 407.934C280.955 404.463 279.884 401.098 278.035 398.154C276.187 395.209 273.621 392.782 270.579 391.1C267.536 389.418 264.117 388.536 260.64 388.536C257.164 388.536 253.744 389.418 250.701 391.1C247.659 392.782 245.093 395.209 243.245 398.154C241.396 401.098 240.325 404.463 240.132 407.934C239.939 411.405 240.63 414.869 242.14 418C237.672 424.425 235.277 432.064 235.277 439.89C235.277 447.716 237.672 455.355 242.14 461.78C240.63 464.911 239.939 468.375 240.132 471.846C240.325 475.317 241.396 478.682 243.245 481.626C245.093 484.571 247.659 486.998 250.701 488.68C253.744 490.362 257.164 491.244 260.64 491.244C264.117 491.244 267.536 490.362 270.579 488.68C273.621 486.998 276.187 484.571 278.035 481.626C279.884 478.682 280.955 475.317 281.148 471.846C281.341 468.375 280.65 464.911 279.14 461.78C283.696 455.41 286.1 447.751 286 439.92Z" fill="black"/>
<path id="Vector 69" d="M287.21 439.92C287.318 432.069 284.914 424.389 280.35 418C281.86 414.869 282.551 411.405 282.358 407.934C282.165 404.463 281.094 401.098 279.245 398.154C277.397 395.209 274.831 392.782 271.789 391.1C268.746 389.418 265.327 388.536 261.85 388.536C258.374 388.536 254.954 389.418 251.911 391.1C248.869 392.782 246.303 395.209 244.455 398.154C242.606 401.098 241.535 404.463 241.342 407.934C241.149 411.405 241.84 414.869 243.35 418C238.882 424.425 236.487 432.064 236.487 439.89C236.487 447.716 238.882 455.355 243.35 461.78C241.84 464.911 241.149 468.375 241.342 471.846C241.535 475.317 242.606 478.682 244.455 481.626C246.303 484.571 248.869 486.998 251.911 488.68C254.954 490.362 258.374 491.244 261.85 491.244C265.327 491.244 268.746 490.362 271.789 488.68C274.831 486.998 277.397 484.571 279.245 481.626C281.094 478.682 282.165 475.317 282.358 471.846C282.551 468.375 281.86 464.911 280.35 461.78C284.902 455.408 287.305 447.751 287.21 439.92Z" fill="#4DB6AC"/>
<path id="Vector 70" d="M264.26 517.84H259.43L261.84 438.11L264.26 517.84Z" fill="#5D291B"/>
<path id="Vector 71" d="M262.45 458.03L278.15 451.4L262.45 459.85V458.03Z" fill="#5D291B"/>
<path id="Vector 72" d="M261.02 465.29L256.41 459.85L260.93 468.31L261.02 465.29Z" fill="#5D291B"/>
</g>
<g id="arbolDer">
<path id="Vector 73" d="M453.32 439.92C453.429 432.067 451.022 424.386 446.45 418C447.96 414.869 448.651 411.405 448.458 407.934C448.265 404.463 447.194 401.098 445.345 398.154C443.497 395.209 440.931 392.782 437.889 391.1C434.846 389.418 431.427 388.536 427.95 388.536C424.474 388.536 421.054 389.418 418.011 391.1C414.969 392.782 412.403 395.209 410.555 398.154C408.706 401.098 407.635 404.463 407.442 407.934C407.249 411.405 407.94 414.869 409.45 418C404.982 424.425 402.587 432.064 402.587 439.89C402.587 447.716 404.982 455.355 409.45 461.78C407.94 464.911 407.249 468.375 407.442 471.846C407.635 475.317 408.706 478.682 410.555 481.626C412.403 484.571 414.969 486.998 418.011 488.68C421.054 490.362 424.474 491.244 427.95 491.244C431.427 491.244 434.846 490.362 437.889 488.68C440.931 486.998 443.497 484.571 445.345 481.626C447.194 478.682 448.265 475.317 448.458 471.846C448.651 468.375 447.96 464.911 446.45 461.78C451.009 455.411 453.416 447.752 453.32 439.92Z" fill="#4DB6AC"/>
<path id="Vector 74" opacity="0.1" d="M453.32 439.92C453.429 432.067 451.022 424.386 446.45 418C447.96 414.869 448.651 411.405 448.458 407.934C448.265 404.463 447.194 401.098 445.345 398.154C443.497 395.209 440.931 392.782 437.889 391.1C434.846 389.418 431.427 388.536 427.95 388.536C424.474 388.536 421.054 389.418 418.011 391.1C414.969 392.782 412.403 395.209 410.555 398.154C408.706 401.098 407.635 404.463 407.442 407.934C407.249 411.405 407.94 414.869 409.45 418C404.982 424.425 402.587 432.064 402.587 439.89C402.587 447.716 404.982 455.355 409.45 461.78C407.94 464.911 407.249 468.375 407.442 471.846C407.635 475.317 408.706 478.682 410.555 481.626C412.403 484.571 414.969 486.998 418.011 488.68C421.054 490.362 424.474 491.244 427.95 491.244C431.427 491.244 434.846 490.362 437.889 488.68C440.931 486.998 443.497 484.571 445.345 481.626C447.194 478.682 448.265 475.317 448.458 471.846C448.651 468.375 447.96 464.911 446.45 461.78C451.009 455.411 453.416 447.752 453.32 439.92Z" fill="black"/>
<path id="Vector 75" d="M454.53 439.92C454.634 432.068 452.227 424.388 447.66 418C449.17 414.869 449.861 411.405 449.668 407.934C449.475 404.463 448.404 401.098 446.555 398.154C444.707 395.209 442.141 392.782 439.099 391.1C436.056 389.418 432.637 388.536 429.16 388.536C425.684 388.536 422.264 389.418 419.221 391.1C416.179 392.782 413.613 395.209 411.765 398.154C409.916 401.098 408.845 404.463 408.652 407.934C408.459 411.405 409.15 414.869 410.66 418C406.192 424.425 403.797 432.064 403.797 439.89C403.797 447.716 406.192 455.355 410.66 461.78C409.15 464.911 408.459 468.375 408.652 471.846C408.845 475.317 409.916 478.682 411.765 481.626C413.613 484.571 416.179 486.998 419.221 488.68C422.264 490.362 425.684 491.244 429.16 491.244C432.637 491.244 436.056 490.362 439.099 488.68C442.141 486.998 444.707 484.571 446.555 481.626C448.404 478.682 449.475 475.317 449.668 471.846C449.861 468.375 449.17 464.911 447.66 461.78C452.215 455.409 454.621 447.752 454.53 439.92Z" fill="#4DB6AC"/>
<path id="Vector 76" d="M431.57 517.84H426.74L429.16 438.11L431.57 517.84Z" fill="#5D291B"/>
<path id="Vector 77" d="M429.76 458.03L445.46 451.4L429.76 459.85V458.03Z" fill="#5D291B"/>
<path id="Vector 78" d="M428.33 465.29L423.72 459.85L428.24 468.31L428.33 465.29Z" fill="#5D291B"/>
<path id="fruto" d="M441.24 447.77C442.908 447.77 444.26 446.418 444.26 444.75C444.26 443.082 442.908 441.73 441.24 441.73C439.572 441.73 438.22 443.082 438.22 444.75C438.22 446.418 439.572 447.77 441.24 447.77Z" fill="#F55F44"/>
</g>
<g id="arbusto">
<path id="arbusto 2" d="M67.91 503C67.91 502.72 67.91 502.45 67.91 502.16C67.9137 500.242 67.4091 498.358 66.4476 496.699C65.4861 495.04 64.102 493.665 62.4363 492.715C60.7706 491.764 58.8829 491.273 56.9653 491.289C55.0477 491.306 53.1688 491.831 51.52 492.81C50.6568 491.189 49.3963 489.814 47.8567 488.813C46.3171 487.813 44.5487 487.219 42.7171 487.088C40.8855 486.957 39.0507 487.293 37.3844 488.065C35.7181 488.837 34.2749 490.019 33.19 491.5C30.982 491.056 28.6905 491.309 26.6328 492.225C24.5751 493.141 22.8531 494.674 21.7052 496.612C20.5573 498.549 20.0402 500.796 20.2256 503.041C20.411 505.285 21.2897 507.417 22.74 509.14C21.9585 511.156 21.7971 513.359 22.2765 515.468C22.756 517.576 23.8544 519.493 25.4308 520.973C27.0073 522.452 28.9899 523.427 31.1243 523.773C33.2587 524.118 35.4475 523.817 37.41 522.91C39.3329 523.799 41.4746 524.103 43.5689 523.785C45.6632 523.466 47.6178 522.54 49.19 521.12C50.6366 522.43 52.4118 523.323 54.3262 523.704C56.2406 524.084 58.2223 523.938 60.06 523.28C62.7493 524.321 65.742 524.251 68.3797 523.085C71.0174 521.92 73.084 519.754 74.125 517.065C75.166 514.376 75.096 511.383 73.9305 508.745C72.7649 506.108 70.5993 504.041 67.91 503Z" fill="#4DB6AC"/>
<path id="arbusto 3" opacity="0.1" d="M67.91 503C67.91 502.72 67.91 502.45 67.91 502.16C67.9137 500.242 67.4091 498.358 66.4476 496.699C65.4861 495.04 64.102 493.665 62.4363 492.715C60.7706 491.764 58.8829 491.273 56.9653 491.289C55.0477 491.306 53.1688 491.831 51.52 492.81C50.6568 491.189 49.3963 489.814 47.8567 488.813C46.3171 487.813 44.5487 487.219 42.7171 487.088C40.8855 486.957 39.0507 487.293 37.3844 488.065C35.7181 488.837 34.2749 490.019 33.19 491.5C30.982 491.056 28.6905 491.309 26.6328 492.225C24.5751 493.141 22.8531 494.674 21.7052 496.612C20.5573 498.549 20.0402 500.796 20.2256 503.041C20.411 505.285 21.2897 507.417 22.74 509.14C21.9585 511.156 21.7971 513.359 22.2765 515.468C22.756 517.576 23.8544 519.493 25.4308 520.973C27.0073 522.452 28.9899 523.427 31.1243 523.773C33.2587 524.118 35.4475 523.817 37.41 522.91C39.3329 523.799 41.4746 524.103 43.5689 523.785C45.6632 523.466 47.6178 522.54 49.19 521.12C50.6366 522.43 52.4118 523.323 54.3262 523.704C56.2406 524.084 58.2223 523.938 60.06 523.28C62.7493 524.321 65.742 524.251 68.3797 523.085C71.0174 521.92 73.084 519.754 74.125 517.065C75.166 514.376 75.096 511.383 73.9305 508.745C72.7649 506.108 70.5993 504.041 67.91 503Z" fill="black"/>
<path id="arbusto 4" d="M69.12 503C69.12 502.72 69.12 502.45 69.12 502.16C69.1237 500.242 68.6191 498.358 67.6576 496.699C66.6961 495.04 65.312 493.665 63.6463 492.715C61.9806 491.764 60.0929 491.273 58.1753 491.289C56.2577 491.306 54.3788 491.831 52.73 492.81C51.8668 491.189 50.6063 489.814 49.0667 488.813C47.5271 487.813 45.7587 487.219 43.9271 487.088C42.0955 486.957 40.2607 487.293 38.5944 488.065C36.9281 488.837 35.4849 490.019 34.4 491.5C32.2027 491.083 29.9304 491.354 27.8928 492.276C25.8553 493.198 24.1517 494.726 23.0145 496.652C21.8772 498.578 21.3616 500.807 21.538 503.037C21.7143 505.266 22.5741 507.387 24 509.11C23.2222 511.127 23.0639 513.33 23.5453 515.437C24.0268 517.544 25.1262 519.46 26.7027 520.939C28.2793 522.418 30.2613 523.392 32.395 523.738C34.5287 524.084 36.7171 523.785 38.68 522.88C40.6029 523.769 42.7446 524.073 44.8389 523.755C46.9332 523.436 48.8878 522.51 50.46 521.09C51.9066 522.4 53.6818 523.293 55.5962 523.674C57.5106 524.054 59.4923 523.908 61.33 523.25C63.9674 524.078 66.821 523.87 69.3103 522.668C71.7997 521.466 73.7377 519.361 74.7302 516.782C75.7226 514.202 75.695 511.341 74.6528 508.78C73.6106 506.22 71.6321 504.153 69.12 503Z" fill="#4DB6AC"/>
</g>
<path id="horizonte" d="M470 518.89H9.35999V525.84H470V518.89Z" fill="#333333"/>
<g id="puerta">
<path id="Vector 79" d="M172.45 434.18H118.09V517.53H172.45V434.18Z" fill="#8AC4D0"/>
<path id="Vector 80" d="M164.29 478.28C165.627 478.28 166.71 477.197 166.71 475.86C166.71 474.523 165.627 473.44 164.29 473.44C162.953 473.44 161.87 474.523 161.87 475.86C161.87 477.197 162.953 478.28 164.29 478.28Z" fill="#535461"/>
</g>
</g>
</g>
<g id="nubes 1">
<g id="nubes">
<g id="nubeDerecha" opacity="0.5">
<path id="Vector_2" opacity="0.5" d="M447.88 78.95H372.84C367.814 78.95 363.74 83.022 363.74 88.045C363.74 93.068 367.814 97.14 372.84 97.14H447.88C452.906 97.14 456.98 93.068 456.98 88.045C456.98 83.022 452.906 78.95 447.88 78.95Z" fill="#90B4BB"/>
<path id="Vector 2_2" opacity="0.5" d="M425.14 97.14H350.1C345.074 97.14 341 101.212 341 106.235C341 111.258 345.074 115.33 350.1 115.33H425.14C430.166 115.33 434.24 111.258 434.24 106.235C434.24 101.212 430.166 97.14 425.14 97.14Z" fill="#90B4BB"/>
<path id="Vector 3_2" opacity="0.5" d="M447.88 115.33H372.84C367.814 115.33 363.74 119.402 363.74 124.425C363.74 129.448 367.814 133.52 372.84 133.52H447.88C452.906 133.52 456.98 129.448 456.98 124.425C456.98 119.402 452.906 115.33 447.88 115.33Z" fill="#90B4BB"/>
</g>
<g id="nubeIzquierda" opacity="0.5">
<path id="Vector 4_2" opacity="0.5" d="M119.88 78.95H44.84C39.8142 78.95 35.74 83.022 35.74 88.045C35.74 93.068 39.8142 97.14 44.84 97.14H119.88C124.906 97.14 128.98 93.068 128.98 88.045C128.98 83.022 124.906 78.95 119.88 78.95Z" fill="#90B4BB"/>
<path id="Vector 5_2" opacity="0.5" d="M97.14 97.14H22.1C17.0742 97.14 13 101.212 13 106.235C13 111.258 17.0742 115.33 22.1 115.33H97.14C102.166 115.33 106.24 111.258 106.24 106.235C106.24 101.212 102.166 97.14 97.14 97.14Z" fill="#90B4BB"/>
<path id="Vector 6_2" opacity="0.5" d="M119.88 115.33H44.84C39.8142 115.33 35.74 119.402 35.74 124.425C35.74 129.448 39.8142 133.52 44.84 133.52H119.88C124.906 133.52 128.98 129.448 128.98 124.425C128.98 119.402 124.906 115.33 119.88 115.33Z" fill="#90B4BB"/>
</g>
<g id="nubeSuperior" opacity="0.5">
<path id="Vector 7_2" opacity="0.5" d="M299.94 0H224.9C219.874 0 215.8 4.07197 215.8 9.095C215.8 14.118 219.874 18.19 224.9 18.19H299.94C304.966 18.19 309.04 14.118 309.04 9.095C309.04 4.07197 304.966 0 299.94 0Z" fill="#90B4BB"/>
<path id="Vector 8_2" opacity="0.5" d="M277.2 18.19H202.16C197.134 18.19 193.06 22.262 193.06 27.285C193.06 32.308 197.134 36.38 202.16 36.38H277.2C282.226 36.38 286.3 32.308 286.3 27.285C286.3 22.262 282.226 18.19 277.2 18.19Z" fill="#90B4BB"/>
<path id="Vector 9_2" opacity="0.5" d="M299.94 36.39H224.9C219.874 36.39 215.8 40.462 215.8 45.485C215.8 50.508 219.874 54.58 224.9 54.58H299.94C304.966 54.58 309.04 50.508 309.04 45.485C309.04 40.462 304.966 36.39 299.94 36.39Z" fill="#90B4BB
"/>
</g>
</g>
</g>
<g id="aves 1">
<g id="aves">
<g id="aveIzquierda" opacity="0.3">
<path id="Vector_3" opacity="0.3" d="M61 233.26H80.9C80.9 233.26 73.4 246.53 61 233.26Z" fill="#030B44"/>
<path id="Vector 2_3" opacity="0.3" d="M62.2 238.9L75.25 223.9C75.25 223.9 80.35 238.24 62.2 238.9Z" fill="#030B44"/>
</g>
<g id="aveSuperior" opacity="0.3">
<path id="Vector 3_3" opacity="0.3" d="M279.26 161.38H299.16C299.16 161.38 291.66 174.65 279.26 161.38Z" fill="#030B44"/>
<path id="Vector 4_3" opacity="0.3" d="M280.46 167L293.46 152C293.46 152 298.61 166.36 280.46 167Z" fill="#030B44"/>
</g>
<g id="aveDerecha" opacity="0.3">
<path id="Vector 5_3" opacity="0.3" d="M386.57 233.26H407.92C407.92 233.26 399.87 247.49 386.57 233.26Z" fill="#030B44"/>
<path id="Vector 6_3" opacity="0.3" d="M387.86 239.32L401.86 223.2C401.86 223.2 407.33 238.6 387.86 239.32Z" fill="#030B44"/>
</g>
</g>
</g>
</g>
</svg>
