<svg xmlns="http://www.w3.org/2000/svg" viewBox="0 0 577.8 579.8"><defs><style>.cls-1{fill:#eb8877;}.cls-2,.cls-5{fill:#c85412;isolation:isolate;}.cls-2{opacity:0.2;}.cls-3{fill:#fbdba1;}.cls-4{fill:#fff;}.cls-5{opacity:0.15;}</style></defs><title>logo</title><g id="Capa_2" data-name="Capa 2"><g id="Capa_1-2" data-name="Capa 1"><path class="cls-1" d="M522.35,355.56a133.87,133.87,0,0,1,16.48-33.44,15.2,15.2,0,0,0-9.72-23.45,133.78,133.78,0,0,1-35.54-12.12,61.77,61.77,0,0,1-27.12-27.12,133.52,133.52,0,0,1-12.12-35.54,15.19,15.19,0,0,0-23.45-9.71,133.63,133.63,0,0,1-33.44,16.47,62.27,62.27,0,0,1-38.88,0,133.63,133.63,0,0,1-33.44-16.47,15.19,15.19,0,0,0-23.45,9.71,133.52,133.52,0,0,1-12.12,35.54,61.77,61.77,0,0,1-27.12,27.12,133.65,133.65,0,0,1-35.54,12.12,15.19,15.19,0,0,0-9.71,23.45,133.8,133.8,0,0,1,16.47,33.44,62.27,62.27,0,0,1,0,38.88,133.63,133.63,0,0,1-16.47,33.44,15.19,15.19,0,0,0,9.71,23.45,133.65,133.65,0,0,1,35.54,12.12,61.82,61.82,0,0,1,27.12,27.12,133.78,133.78,0,0,1,12.12,35.54,15.2,15.2,0,0,0,23.45,9.72,133.71,133.71,0,0,1,33.44-16.48,62.27,62.27,0,0,1,38.88,0,133.71,133.71,0,0,1,33.44,16.48,15.2,15.2,0,0,0,23.45-9.72,133.78,133.78,0,0,1,12.12-35.54,61.82,61.82,0,0,1,27.12-27.12,133.78,133.78,0,0,1,35.54-12.12,15.2,15.2,0,0,0,9.72-23.45,133.71,133.71,0,0,1-16.48-33.44A62.27,62.27,0,0,1,522.35,355.56Z"/><path class="cls-2" d="M538.82,427.88a133.22,133.22,0,0,1-7.62-12.66c-215.52,58-231.09-114.63-200.54-197.47-1.83-1.13-3.68-2.31-5.54-3.57a15.19,15.19,0,0,0-23.45,9.71,133.52,133.52,0,0,1-12.12,35.54,61.77,61.77,0,0,1-27.12,27.12,133.65,133.65,0,0,1-35.54,12.12,15.19,15.19,0,0,0-9.71,23.45,133.8,133.8,0,0,1,16.47,33.44,62.27,62.27,0,0,1,0,38.88,133.63,133.63,0,0,1-16.47,33.44,15.19,15.19,0,0,0,9.71,23.45,133.65,133.65,0,0,1,35.54,12.12,61.82,61.82,0,0,1,27.12,27.12,133.78,133.78,0,0,1,12.12,35.54,15.2,15.2,0,0,0,23.45,9.72,133.71,133.71,0,0,1,33.44-16.48,62.27,62.27,0,0,1,38.88,0,133.71,133.71,0,0,1,33.44,16.48,15.2,15.2,0,0,0,23.45-9.72,133.78,133.78,0,0,1,12.12-35.54,61.82,61.82,0,0,1,27.12-27.12,133.78,133.78,0,0,1,35.54-12.12A15.19,15.19,0,0,0,538.82,427.88Z"/><circle class="cls-3" cx="378" cy="375" r="111.34"/><ellipse class="cls-4" cx="313.13" cy="362.11" rx="23.94" ry="19.06"/><ellipse class="cls-4" cx="442.87" cy="362.11" rx="23.94" ry="19.06"/><path class="cls-5" d="M378,486.34a111.3,111.3,0,0,0,97.33-57.24c-156.61,57.24-193.64-81.28-153.49-150.25A111.35,111.35,0,0,0,378,486.34Z"/><path d="M204.85,369.4H174.43a6.15,6.15,0,0,0-6.18,5.25,6,6,0,0,0,5.95,6.75h30.88a6,6,0,0,0,5.95-6.75A6.15,6.15,0,0,0,204.85,369.4Zm87.63,123.81c-.82-1.8-1.69-3.61-2.58-5.36a67.39,67.39,0,0,0-29.75-29.75A139.16,139.16,0,0,0,223,445.44a9.2,9.2,0,0,1-5.88-14.18,139,139,0,0,0,17.22-34.95,67.82,67.82,0,0,0,0-42.62,139.17,139.17,0,0,0-17.22-34.95A9.21,9.21,0,0,1,223,304.56a139.16,139.16,0,0,0,37.14-12.66,67.39,67.39,0,0,0,29.75-29.75A139.16,139.16,0,0,0,302.56,225a9.2,9.2,0,0,1,14.18-5.88,139.17,139.17,0,0,0,34.95,17.22,67.68,67.68,0,0,0,42.62,0,139.17,139.17,0,0,0,34.95-17.22A9.2,9.2,0,0,1,443.43,225c.29,1.5.61,3,.95,4.54a6,6,0,0,0,11.7-2.62c-.31-1.38-.6-2.78-.86-4.16a21.19,21.19,0,0,0-32.72-13.55A127,127,0,0,1,390.57,225a55.86,55.86,0,0,1-35.14,0,126.87,126.87,0,0,1-31.93-15.73,21.2,21.2,0,0,0-32.73,13.55,127.24,127.24,0,0,1-11.57,34,55.5,55.5,0,0,1-24.49,24.49,127.41,127.41,0,0,1-33.94,11.57,21.2,21.2,0,0,0-13.56,32.72A127.07,127.07,0,0,1,223,357.43a55.86,55.86,0,0,1,0,35.14,126.9,126.9,0,0,1-15.74,31.93,21.21,21.21,0,0,0,13.56,32.73,127.06,127.06,0,0,1,33.94,11.57,55.45,55.45,0,0,1,24.49,24.49c.81,1.6,1.61,3.24,2.35,4.89a6,6,0,0,0,5.47,3.51,6,6,0,0,0,5.46-8.48ZM379.4,206.85V176.43a6.15,6.15,0,0,0-5.25-6.18,6,6,0,0,0-6.75,5.95v30.88a6,6,0,0,0,6.75,6A6.16,6.16,0,0,0,379.4,206.85Zm112.34,55.41a6,6,0,0,0,4.24-1.75l21.84-21.84a6,6,0,1,0-8.49-8.48L487.5,252a6,6,0,0,0,4.24,10.24ZM250,260.51A6,6,0,0,0,258.5,252l-21.83-21.83a6,6,0,0,0-8.49,8.48ZM322.08,324a17.42,17.42,0,0,0-17.4,17.39,6,6,0,0,0,12,0,5.4,5.4,0,0,1,10.79,0,6,6,0,0,0,12,0A17.41,17.41,0,0,0,322.08,324Zm43.36,26.76a6,6,0,0,0-9.05,7.89,22,22,0,0,0,33.22,0,6,6,0,1,0-9.05-7.89,10,10,0,0,1-15.12,0ZM255.66,375A117.34,117.34,0,1,0,373,257.66,117.47,117.47,0,0,0,255.66,375Zm222.68,0A105.34,105.34,0,1,1,373,269.66,105.46,105.46,0,0,1,478.34,375ZM367.4,543.15v30.42a6.16,6.16,0,0,0,5.25,6.19,6,6,0,0,0,6.75-6V542.92a6,6,0,0,0-6.75-5.95A6.15,6.15,0,0,0,367.4,543.15ZM496,489.5A6,6,0,0,0,487.5,498l21.83,21.84a6,6,0,1,0,8.49-8.49ZM412.53,347.37a6,6,0,0,0,6-6,5.4,5.4,0,0,1,10.79,0,6,6,0,0,0,12,0,17.4,17.4,0,0,0-34.79,0A6,6,0,0,0,412.53,347.37Zm110.52,45.2a55.86,55.86,0,0,1,0-35.14,127.37,127.37,0,0,1,15.73-31.93,21.19,21.19,0,0,0-13.55-32.72,127.27,127.27,0,0,1-34-11.58,55.4,55.4,0,0,1-24.48-24.48c-.76-1.5-1.51-3-2.22-4.59a6,6,0,0,0-10.91,5c.78,1.69,1.59,3.38,2.43,5a67.34,67.34,0,0,0,29.75,29.75A139.18,139.18,0,0,0,523,304.57a9.2,9.2,0,0,1,5.88,14.17,139.17,139.17,0,0,0-17.22,34.95,67.71,67.71,0,0,0,0,42.63,139.1,139.1,0,0,0,17.22,34.94A9.2,9.2,0,0,1,523,445.44a139.16,139.16,0,0,0-37.14,12.66,67.39,67.39,0,0,0-29.75,29.75A138.78,138.78,0,0,0,443.43,525a9.2,9.2,0,0,1-14.17,5.87,139.17,139.17,0,0,0-34.95-17.22,67.82,67.82,0,0,0-42.62,0,139.17,139.17,0,0,0-34.95,17.22A9.21,9.21,0,0,1,302.56,525c-.23-1.25-.48-2.47-.74-3.68a6,6,0,0,0-11.73,2.56c.24,1.1.47,2.22.69,3.35a21.19,21.19,0,0,0,32.72,13.55,127.37,127.37,0,0,1,31.93-15.73,55.86,55.86,0,0,1,35.14,0,127.37,127.37,0,0,1,31.93,15.73,21.19,21.19,0,0,0,32.72-13.55,127.08,127.08,0,0,1,11.58-33.94,55.45,55.45,0,0,1,24.49-24.49,127.06,127.06,0,0,1,33.94-11.57,21.2,21.2,0,0,0,13.55-32.73A127.21,127.21,0,0,1,523.05,392.57ZM571.8,369.4H541.15a6.15,6.15,0,0,0-6.18,5.25,6,6,0,0,0,5.95,6.75h30.65a6.15,6.15,0,0,0,6.18-5.25A6,6,0,0,0,571.8,369.4Z"/><path d="M266,492a20,20,0,0,1-20,20H20A20,20,0,0,1,0,492V216.67a20,20,0,0,1,7.2-15.36L243.2,4.64a20,20,0,0,1,25.6,0l236,196.67A20,20,0,1,1,479.2,232L256,46,40,226V472H246A20,20,0,0,1,266,492Z"/></g></g></svg>